<?xml version="1.0" encoding="UTF-8" standalone="no"?>
<!-- Created with Inkscape (http://www.inkscape.org/) -->

<svg
   width="200"
   height="200"
   viewBox="0 0 52.916666 52.916668"
   version="1.1"
   id="svg5"
   inkscape:version="1.1.2 (0a00cf5339, 2022-02-04, custom)"
   sodipodi:docname="A8-logo.svg"
   xmlns:inkscape="http://www.inkscape.org/namespaces/inkscape"
   xmlns:sodipodi="http://sodipodi.sourceforge.net/DTD/sodipodi-0.dtd"
   xmlns="http://www.w3.org/2000/svg"
   xmlns:svg="http://www.w3.org/2000/svg">
  <sodipodi:namedview
     id="namedview7"
     pagecolor="#ffffff"
     bordercolor="#111111"
     borderopacity="1"
     inkscape:pageshadow="0"
     inkscape:pageopacity="0"
     inkscape:pagecheckerboard="1"
     inkscape:document-units="px"
     showgrid="false"
     width="200px"
     units="px"
     showguides="true"
     inkscape:guide-bbox="true"
     inkscape:zoom="4.01"
     inkscape:cx="99.875312"
     inkscape:cy="100"
     inkscape:window-width="1920"
     inkscape:window-height="1007"
     inkscape:window-x="0"
     inkscape:window-y="0"
     inkscape:window-maximized="1"
     inkscape:current-layer="layer12">
    <sodipodi:guide
       position="-36.286783,33.548002"
       orientation="1,0"
       id="guide9" />
    <sodipodi:guide
       position="2.0498736,51.568788"
       orientation="0,-1"
       id="guide11" />
    <sodipodi:guide
       position="51.61607,-4.02"
       orientation="1,0"
       id="guide13" />
    <sodipodi:guide
       position="0,52.916667"
       orientation="0,200"
       id="guide27702" />
    <sodipodi:guide
       position="52.916667,52.916667"
       orientation="200,0"
       id="guide27704" />
    <sodipodi:guide
       position="52.916667,0"
       orientation="0,-200"
       id="guide27706" />
    <sodipodi:guide
       position="0,0"
       orientation="-200,0"
       id="guide27708" />
    <sodipodi:guide
       position="10.497494,30.45203"
       orientation="0,-1"
       id="guide46890" />
    <sodipodi:guide
       position="17.892395,25.296594"
       orientation="0,-1"
       id="guide46892" />
    <sodipodi:guide
       position="21.398693,30.504083"
       orientation="1,0"
       id="guide16662" />
  </sodipodi:namedview>
  <defs
     id="defs2">
    <rect
       x="14.232577"
       y="45.339989"
       width="18.540669"
       height="70.121357"
       id="rect32287" />
    <rect
       x="18.856187"
       y="37.865652"
       width="16.971449"
       height="47.430294"
       id="rect9722" />
  </defs>
  <g
     inkscape:label="Base"
     inkscape:groupmode="layer"
     id="layer1"
     style="display:none"
     sodipodi:insensitive="true">
    <g
       inkscape:groupmode="layer"
       id="layer3"
       inkscape:label="8"
       style="display:none"
       sodipodi:insensitive="true">
      <path
         d="M 37.583085,51.726036 28.946354,27.620073 H 16.312549 L 7.8931616,51.726036 H 1.4552082 L 19.844469,1.4552084 h 5.821553 L 44.089527,51.726036 Z M 27.126981,22.464637 22.588868,8.9751907 18.122314,22.464637 Z"
         style="font-family:'Droid Sans';-inkscape-font-specification:'Droid Sans';display:none;stroke:#000000;stroke-opacity:1"
         id="path2441"
         sodipodi:nodetypes="ccccccccccccc"
         sodipodi:insensitive="true" />
      <g
         inkscape:groupmode="layer"
         id="layer10"
         inkscape:label="8 - Main Shape"
         style="display:none"
         sodipodi:insensitive="true">
        <g
           aria-label="8"
           id="g122"
           style="font-size:66.1173px;line-height:1.25;display:none;fill:none;stroke:#fffd00;stroke-width:0.263197"
           transform="translate(15.235003,-0.016636)"
           sodipodi:insensitive="true" />
      </g>
      <g
         inkscape:groupmode="layer"
         id="layer6"
         inkscape:label="8b"
         style="display:none"
         sodipodi:insensitive="true" />
      <g
         inkscape:groupmode="layer"
         id="layer5"
         inkscape:label="8a"
         style="display:none"
         sodipodi:insensitive="true" />
    </g>
    <g
       inkscape:groupmode="layer"
       id="layer2"
       inkscape:label="A"
       style="display:none"
       sodipodi:insensitive="true">
      <g
         inkscape:groupmode="layer"
         id="layer7"
         inkscape:label="A - Main Shape"
         style="display:none"
         sodipodi:insensitive="true" />
      <g
         inkscape:groupmode="layer"
         id="layer9"
         inkscape:label="Ab"
         style="display:none"
         sodipodi:insensitive="true">
        <path
           id="path6417"
           style="font-family:'Droid Sans';-inkscape-font-specification:'Droid Sans';display:none;fill:#00ffff;fill-opacity:0.512052;stroke:#f30000;stroke-width:0.997383;stroke-miterlimit:4;stroke-dasharray:none;stroke-opacity:1"
           d="M 98.681641,9.4589844 C 92.67343,11.540246 87.394519,14.429088 82.845703,18.125 72.514876,26.584891 67.349609,38.095476 67.349609,52.65625 c 0,7.861225 1.671189,14.816314 5.009766,20.869141 l 13.232422,-39.753907 6.357422,18.796875 c 0.464437,-8.287638 3.362692,-14.85141 8.710941,-19.679687 1.59384,-1.41918 3.36313,-2.643378 5.29687,-3.681641 z m 1.345699,66.9960936 2.7168,8.033203 H 81.462891 c 5.247913,4.368999 11.724131,7.508566 19.441409,9.408203 -8.478831,1.974521 -15.623866,5.305156 -21.449222,9.974606 h 30.166012 l 0.95118,2.64063 c 4.43784,-1.40762 9.42554,-2.1211 14.97851,-2.1211 2.93151,0 5.70537,0.19513 8.32031,0.58204 l -7.36718,-19.998051 c -0.3176,0.0049 -0.63124,0.01563 -0.95313,0.01563 -10.65621,0 -18.95243,-2.644207 -24.89062,-7.93164 -0.21757,-0.196418 -0.42333,-0.401373 -0.63282,-0.603516 z m 55.33985,86.863282 c -0.66654,0.76082 -1.36739,1.49849 -2.11719,2.20312 -4.83207,4.48277 -10.94272,7.35246 -18.31641,8.62696 l 6.88086,19.10351 c 8.39286,-1.31799 15.69542,-3.73493 21.90821,-7.25195 z"
           transform="scale(0.26458333)" />
      </g>
      <g
         inkscape:groupmode="layer"
         id="layer8"
         inkscape:label="Aa"
         style="display:none"
         sodipodi:insensitive="true">
        <g
           aria-label="A"
           id="g3092"
           style="font-size:70.1326px;line-height:1.25;display:none;fill:none;stroke:#000000;stroke-width:0.264583"
           transform="matrix(1.0000116,0,0,0.99475765,0.05695137,0.00725813)"
           sodipodi:insensitive="true">
          <path
             id="path3090"
             style="font-family:'Droid Sans';-inkscape-font-specification:'Droid Sans';display:inline;fill:#fd0000;fill-opacity:0.512052;stroke:#ff0000;stroke-width:0.99738;stroke-opacity:0.734022"
             d="m 163.72266,186 c -0.28423,0.1609 -0.56864,0.32222 -0.85743,0.47852 -0.40863,0.22115 -0.82051,0.43649 -1.23828,0.64843 -0.41776,0.21195 -0.84067,0.42032 -1.26757,0.62305 -0.42691,0.20273 -0.85889,0.40024 -1.29493,0.59375 -0.43604,0.19351 -0.87514,0.38211 -1.32031,0.56641 -0.44517,0.18429 -0.8953,0.36398 -1.34961,0.53906 -0.45431,0.17508 -0.91351,0.34585 -1.37695,0.51172 -0.46345,0.16587 -0.93172,0.32772 -1.4043,0.48437 -0.47258,0.15666 -0.94992,0.30764 -1.43164,0.45508 -0.48171,0.14744 -0.96813,0.29147 -1.45898,0.42969 -0.49085,0.13822 -0.98635,0.27138 -1.48633,0.40039 -0.49999,0.12901 -1.00455,0.25325 -1.51367,0.37305 -0.50913,0.11979 -1.02276,0.23512 -1.54102,0.3457 -0.51826,0.11058 -1.04097,0.21699 -1.56836,0.31836 -0.52739,0.10136 -1.05917,0.19887 -1.5957,0.29101 -0.39768,0.0683 -0.80043,0.13012 -1.20313,0.19336 l 0.44922,1.25 h 24.5918 z"
             transform="matrix(0.26458027,0,0,0.26597768,-0.05695071,-0.00729638)" />
          <path
             id="path3366"
             style="font-family:'Droid Sans';-inkscape-font-specification:'Droid Sans';display:inline;fill:#fd0000;fill-opacity:0.512052;stroke:#ff0000;stroke-width:0.99738;stroke-opacity:0.734022"
             d="m 155.36719,163.31836 c -0.29142,0.33264 -0.58329,0.66443 -0.89063,0.98633 -0.3956,0.41435 -0.80458,0.82024 -1.22656,1.21679 -0.42198,0.39148 -0.85356,0.77167 -1.29492,1.13868 -0.44136,0.367 -0.89277,0.72191 -1.35352,1.06445 -0.46074,0.34254 -0.93198,0.67216 -1.41211,0.99023 -0.48012,0.31808 -0.96924,0.62437 -1.46875,0.91797 -0.49951,0.29361 -1.00845,0.57461 -1.52734,0.84375 -0.51889,0.26914 -1.04766,0.52486 -1.58594,0.76953 -0.53827,0.24467 -1.08687,0.47707 -1.64453,0.69727 -0.55766,0.2202 -1.12413,0.42926 -1.70117,0.625 -0.57704,0.19574 -1.16334,0.37951 -1.75977,0.55078 -0.59642,0.17127 -1.20255,0.32976 -1.81836,0.47656 -0.6158,0.14681 -1.24176,0.28196 -1.87695,0.4043 -0.28648,0.0552 -0.58262,0.0982 -0.87305,0.14844 l 6.88086,19.10351 c 0.4027,-0.0632 0.80545,-0.12505 1.20313,-0.19336 0.53653,-0.0921 1.06831,-0.18965 1.5957,-0.29101 0.52739,-0.10137 1.0501,-0.20778 1.56836,-0.31836 0.51826,-0.11058 1.03189,-0.22591 1.54102,-0.3457 0.50912,-0.1198 1.01368,-0.24404 1.51367,-0.37305 0.49998,-0.12901 0.99548,-0.26217 1.48633,-0.40039 0.49085,-0.13822 0.97727,-0.28225 1.45898,-0.42969 0.48172,-0.14744 0.95906,-0.29842 1.43164,-0.45508 0.47258,-0.15665 0.94085,-0.3185 1.4043,-0.48437 0.46344,-0.16587 0.92264,-0.33664 1.37695,-0.51172 0.45431,-0.17508 0.90444,-0.35477 1.34961,-0.53906 0.44517,-0.1843 0.88427,-0.3729 1.32031,-0.56641 0.43604,-0.19351 0.86802,-0.39102 1.29493,-0.59375 0.4269,-0.20273 0.84981,-0.4111 1.26757,-0.62305 0.41777,-0.21194 0.82965,-0.42728 1.23828,-0.64843 0.28879,-0.1563 0.5732,-0.31762 0.85743,-0.47852 z"
             transform="matrix(0.26458027,0,0,0.26597768,-0.05695071,-0.00729638)" />
          <path
             id="path3364"
             style="font-family:'Droid Sans';-inkscape-font-specification:'Droid Sans';display:inline;fill:#fd0000;fill-opacity:0.512052;stroke:#ff0000;stroke-width:0.99738;stroke-opacity:0.734022"
             d="m 133.87109,104.97266 c -0.64219,-0.095 -1.29379,-0.18027 -1.95507,-0.25196 -0.67714,-0.0734 -1.3634,-0.13466 -2.06055,-0.18359 -0.69715,-0.0489 -1.40588,-0.0849 -2.12305,-0.10938 -0.71717,-0.0245 -1.44445,-0.0371 -2.18164,-0.0371 -0.7321,0 -1.45329,0.0127 -2.16601,0.0371 -0.71273,0.0245 -1.41604,0.0605 -2.10938,0.10938 -0.69334,0.0489 -1.37682,0.11019 -2.05078,0.18359 -0.67396,0.0734 -1.33761,0.15995 -1.99219,0.25782 -0.65457,0.0979 -1.30035,0.20774 -1.93554,0.33007 -0.6352,0.12234 -1.26115,0.2575 -1.87696,0.4043 -0.61581,0.1468 -1.22193,0.30529 -1.81836,0.47656 -0.34946,0.10036 -0.68844,0.21352 -1.03125,0.32227 l 24.36328,67.63672 c 0.29043,-0.0502 0.58657,-0.0933 0.87305,-0.14844 0.63519,-0.12234 1.26115,-0.25749 1.87695,-0.4043 0.61581,-0.1468 1.22194,-0.30529 1.81836,-0.47656 0.59643,-0.17127 1.18273,-0.35504 1.75977,-0.55078 0.57704,-0.19574 1.14351,-0.4048 1.70117,-0.625 0.55766,-0.2202 1.10626,-0.4526 1.64453,-0.69727 0.53828,-0.24467 1.06705,-0.50039 1.58594,-0.76953 0.51889,-0.26914 1.02783,-0.55014 1.52734,-0.84375 0.49951,-0.2936 0.98863,-0.59989 1.46875,-0.91797 0.48013,-0.31807 0.95137,-0.64769 1.41211,-0.99023 0.46075,-0.34254 0.91216,-0.69745 1.35352,-1.06445 0.44136,-0.36701 0.87294,-0.7472 1.29492,-1.13868 0.42198,-0.39655 0.83096,-0.80244 1.22656,-1.21679 0.30734,-0.3219 0.59921,-0.65369 0.89063,-0.98633 z"
             transform="matrix(0.26458027,0,0,0.26597768,-0.05695071,-0.00729638)" />
          <path
             id="path3362"
             style="font-family:'Droid Sans';-inkscape-font-specification:'Droid Sans';display:inline;fill:#fd0000;fill-opacity:0.512052;stroke:#ff0000;stroke-width:0.99738;stroke-opacity:0.734022"
             d="m 100.02734,76.455078 c 0.20949,0.202143 0.41525,0.407098 0.63282,0.603516 0.37113,0.330464 0.75105,0.651127 1.14062,0.960937 0.38957,0.309811 0.78927,0.609281 1.19727,0.898438 0.40799,0.289156 0.82357,0.567435 1.25,0.835937 0.42642,0.268503 0.86373,0.527542 1.30859,0.775391 0.44486,0.247848 0.89804,0.485696 1.36133,0.712891 0.46328,0.227194 0.93625,0.44385 1.41797,0.65039 0.48171,0.20654 0.97251,0.402004 1.47265,0.587891 0.50015,0.185886 1.00877,0.362111 1.52735,0.527343 0.51857,0.165233 1.04698,0.320266 1.58398,0.464844 0.53701,0.144578 1.08324,0.27842 1.63867,0.402344 0.55544,0.123924 1.1195,0.236574 1.69336,0.339844 0.57387,0.10327 1.15771,0.19668 1.75,0.279297 0.5923,0.08262 1.19397,0.154834 1.80469,0.216797 0.61072,0.06196 1.23022,0.112988 1.85938,0.154296 0.62915,0.04131 1.26843,0.0731 1.91601,0.09375 0.64758,0.02065 1.30274,0.03125 1.96875,0.03125 0.32189,0 0.63553,-0.01073 0.95313,-0.01563 L 105.95703,29.207031 c -0.13261,0.0712 -0.26938,0.137947 -0.40039,0.210938 -0.44486,0.247848 -0.88217,0.506888 -1.30859,0.77539 -0.42643,0.268503 -0.84201,0.546781 -1.25,0.835938 -0.408,0.289156 -0.8077,0.588627 -1.19727,0.898437 -0.38957,0.309811 -0.76949,0.630473 -1.14062,0.960938 -0.36606,0.330464 -0.721282,0.668955 -1.064457,1.015625 -0.343175,0.34667 -0.673844,0.701577 -0.994141,1.064453 -0.320296,0.362876 -0.630316,0.7342 -0.927734,1.113281 -0.297418,0.379081 -0.582882,0.76487 -0.857422,1.160157 -0.27454,0.395286 -0.537401,0.799445 -0.789062,1.210937 -0.251662,0.411492 -0.49192,0.832068 -0.720703,1.259766 -0.228784,0.427697 -0.446439,0.862737 -0.652344,1.30664 -0.205905,0.443903 -0.400958,0.895361 -0.583985,1.355469 -0.183026,0.460108 -0.353523,0.927983 -0.513671,1.404297 -0.160149,0.476314 -0.309996,0.960606 -0.447266,1.453125 -0.13727,0.492519 -0.262562,0.993228 -0.376953,1.501953 -0.114392,0.508725 -0.217081,1.025851 -0.308594,1.550781 -0.09151,0.52493 -0.171599,1.058474 -0.240234,1.59961 -0.06864,0.541135 -0.126119,1.091096 -0.171875,1.648437 -0.02794,0.340298 -0.04309,0.688817 -0.0625,1.035156 z"
             transform="matrix(0.26458027,0,0,0.26597768,-0.05695071,-0.00729638)" />
          <path
             id="path3360"
             style="font-family:'Droid Sans';-inkscape-font-specification:'Droid Sans';display:inline;fill:#fd0000;fill-opacity:0.512052;stroke:#ff0000;stroke-width:0.99738;stroke-opacity:0.734022"
             d="m 81.462891,84.488281 c 0.304008,0.253093 0.605674,0.507147 0.917968,0.751953 0.461697,0.361923 0.932301,0.714784 1.41211,1.058594 0.479809,0.34381 0.968876,0.680161 1.466797,1.00586 0.497921,0.325698 1.005451,0.641632 1.521484,0.949218 0.516033,0.307586 1.040074,0.60701 1.574219,0.896485 0.534145,0.289474 1.076649,0.568481 1.628906,0.839843 0.552257,0.271363 1.115178,0.53386 1.685547,0.78711 0.570369,0.25325 1.1498,0.497283 1.738281,0.732422 0.588481,0.235138 1.184423,0.462661 1.791016,0.679687 0.606593,0.217026 1.222951,0.424133 1.847656,0.623047 0.624705,0.198914 1.259527,0.38951 1.902344,0.570312 0.642817,0.180803 1.294151,0.350982 1.955081,0.513672 -0.74228,0.172859 -1.475331,0.357269 -2.197269,0.550782 -0.721937,0.193512 -1.433164,0.397161 -2.134765,0.611328 -0.701602,0.214166 -1.392954,0.439008 -2.074219,0.673828 -0.681265,0.23482 -1.352743,0.4789 -2.013672,0.734375 -0.660929,0.255474 -1.310579,0.5227 -1.951172,0.798828 -0.640593,0.276128 -1.272322,0.562593 -1.892578,0.859375 -0.620256,0.296782 -1.230158,0.602485 -1.830078,0.919922 -0.59992,0.317436 -1.189948,0.646284 -1.769531,0.984378 -0.579584,0.33809 -1.147784,0.68617 -1.707032,1.04492 -0.559247,0.35874 -1.109526,0.72802 -1.648437,1.10742 -0.538911,0.3794 -1.067363,0.76792 -1.585938,1.16797 -0.219239,0.16913 -0.428926,0.34866 -0.644531,0.52148 h 30.164062 l 0.95117,2.64063 c 0.34281,-0.10875 0.68179,-0.22191 1.03125,-0.32227 0.59643,-0.17127 1.20255,-0.32976 1.81836,-0.47656 0.61581,-0.1468 1.24176,-0.28196 1.87696,-0.4043 0.63519,-0.12233 1.28097,-0.23221 1.93554,-0.33007 0.65458,-0.0979 1.31823,-0.18442 1.99219,-0.25782 0.67396,-0.0734 1.35744,-0.13466 2.05078,-0.18359 0.69334,-0.0489 1.39665,-0.0849 2.10938,-0.10938 0.71272,-0.0245 1.43391,-0.0371 2.16601,-0.0371 0.73719,0 1.46447,0.0127 2.18164,0.0371 0.71717,0.0245 1.4259,0.0605 2.12305,0.10938 0.69715,0.0489 1.38341,0.11019 2.06055,0.18359 0.66128,0.0717 1.31288,0.15694 1.95507,0.25196 l -7.36718,-19.998051 c -0.3176,0.0049 -0.63124,0.01563 -0.95313,0.01563 -0.66601,0 -1.32117,-0.0106 -1.96875,-0.03125 -0.64758,-0.02065 -1.28686,-0.05244 -1.91601,-0.09375 -0.62916,-0.04131 -1.24866,-0.09233 -1.85938,-0.154296 -0.61072,-0.06196 -1.21239,-0.134181 -1.80469,-0.216797 -0.59229,-0.08262 -1.17613,-0.176027 -1.75,-0.279297 -0.57386,-0.10327 -1.13792,-0.21592 -1.69336,-0.339844 -0.55543,-0.123924 -1.10166,-0.257766 -1.63867,-0.402344 -0.537,-0.144578 -1.06541,-0.299611 -1.58398,-0.464844 -0.51858,-0.165232 -1.0272,-0.341457 -1.52735,-0.527343 -0.50014,-0.185887 -0.99094,-0.381351 -1.47265,-0.587891 -0.48172,-0.20654 -0.95469,-0.423196 -1.41797,-0.65039 -0.46329,-0.227195 -0.91647,-0.465043 -1.36133,-0.712891 -0.44486,-0.247849 -0.88217,-0.506888 -1.30859,-0.775391 -0.42643,-0.268502 -0.84201,-0.546781 -1.25,-0.835937 -0.408,-0.289157 -0.8077,-0.588627 -1.19727,-0.898438 -0.38957,-0.30981 -0.76949,-0.630473 -1.14062,-0.960937 -0.21757,-0.196418 -0.42333,-0.401373 -0.63282,-0.603516 l 2.7168,8.033203 z"
             transform="matrix(0.26458027,0,0,0.26597768,-0.05695071,-0.00729638)" />
          <path
             id="path3358"
             style="font-family:'Droid Sans';-inkscape-font-specification:'Droid Sans';display:inline;fill:#fd0000;fill-opacity:0.512052;stroke:#ff0000;stroke-width:0.99738;stroke-opacity:0.734022"
             d="M 98.681641,9.4589844 97.222656,5.4980469 H 75.21875 L 5.7148438,194.50195 H 30.048828 l 31.820313,-90.63086 h 17.585937 c 0.215605,-0.17282 0.425292,-0.35235 0.644531,-0.52148 0.518575,-0.40005 1.047027,-0.78857 1.585938,-1.16797 0.538911,-0.3794 1.08919,-0.74868 1.648437,-1.10742 0.559248,-0.35875 1.127448,-0.70683 1.707032,-1.04492 0.579583,-0.338094 1.169611,-0.666942 1.769531,-0.984378 0.59992,-0.317437 1.209822,-0.62314 1.830078,-0.919922 0.620256,-0.296782 1.251985,-0.583247 1.892578,-0.859375 0.640593,-0.276128 1.290243,-0.543354 1.951172,-0.798828 0.660929,-0.255475 1.332407,-0.499555 2.013672,-0.734375 0.681265,-0.23482 1.372617,-0.459662 2.074219,-0.673828 0.701601,-0.214167 1.412828,-0.417816 2.134765,-0.611328 0.721938,-0.193513 1.454989,-0.377923 2.197269,-0.550782 -0.66093,-0.16269 -1.312264,-0.332869 -1.955081,-0.513672 C 98.306402,93.20201 97.67158,93.011414 97.046875,92.8125 96.42217,92.613586 95.805812,92.406479 95.199219,92.189453 c -0.606593,-0.217026 -1.202535,-0.444549 -1.791016,-0.679687 -0.588481,-0.235139 -1.167912,-0.479172 -1.738281,-0.732422 -0.570369,-0.25325 -1.13329,-0.515747 -1.685547,-0.78711 -0.552257,-0.271362 -1.094761,-0.550369 -1.628906,-0.839843 -0.534145,-0.289475 -1.058186,-0.588899 -1.574219,-0.896485 -0.516033,-0.307586 -1.023563,-0.62352 -1.521484,-0.949218 -0.497921,-0.325699 -0.986988,-0.66205 -1.466797,-1.00586 -0.479809,-0.34381 -0.950413,-0.696671 -1.41211,-1.058594 -0.312294,-0.244806 -0.61396,-0.49886 -0.917968,-0.751953 H 68.708984 l 3.650391,-10.964843 c -0.02185,-0.03962 -0.04665,-0.07749 -0.06836,-0.117188 -0.27454,-0.502052 -0.537401,-1.010946 -0.789063,-1.525391 -0.251661,-0.514444 -0.49192,-1.035663 -0.720703,-1.5625 C 70.552466,69.791523 70.33481,69.259932 70.128905,68.720703 69.923,68.181474 69.727947,67.635606 69.544921,67.083984 69.361894,66.532363 69.191397,65.97417 69.031249,65.410156 68.871101,64.846142 68.721253,64.275625 68.583983,63.699219 68.446714,63.122812 68.321422,62.539971 68.20703,61.951172 68.092639,61.362373 67.98995,60.76916 67.898437,60.167969 c -0.09151,-0.601191 -0.1716,-1.208682 -0.240235,-1.822266 -0.06864,-0.613584 -0.126118,-1.233399 -0.171875,-1.859375 -0.04576,-0.625976 -0.08064,-1.258116 -0.103516,-1.896484 -0.02288,-0.638369 -0.0332,-1.282833 -0.0332,-1.933594 0,-0.455024 0.0036,-0.908356 0.01367,-1.357422 0.01009,-0.449066 0.0267,-0.894782 0.04687,-1.33789 0.02018,-0.443109 0.04395,-0.883162 0.07422,-1.320313 0.03027,-0.437151 0.06707,-0.871542 0.107422,-1.302734 0.04036,-0.431193 0.08432,-0.859922 0.134765,-1.285157 0.05044,-0.425234 0.107437,-0.846348 0.167969,-1.265625 0.06053,-0.419276 0.124692,-0.836681 0.195313,-1.25 0.07062,-0.413319 0.147806,-0.823107 0.228515,-1.230468 0.08071,-0.407361 0.165061,-0.811488 0.25586,-1.212891 0.0908,-0.401403 0.188175,-0.799867 0.289062,-1.195312 0.100887,-0.395446 0.205431,-0.788248 0.316407,-1.177735 0.110975,-0.389487 0.226591,-0.776627 0.347656,-1.160156 0.121064,-0.38353 0.247753,-0.763054 0.378906,-1.140625 0.131153,-0.377572 0.266961,-0.751433 0.408203,-1.123047 0.141242,-0.371614 0.288123,-0.741766 0.439453,-1.107422 0.151331,-0.365656 0.307331,-0.728193 0.46875,-1.087891 0.161419,-0.359697 0.328492,-0.716572 0.5,-1.070312 0.171508,-0.35374 0.347701,-0.702999 0.529297,-1.050781 0.181597,-0.347782 0.368862,-0.693332 0.560547,-1.035157 0.191685,-0.341824 0.38807,-0.681711 0.589844,-1.017578 0.201774,-0.335866 0.409231,-0.668138 0.621094,-0.998046 0.211862,-0.329909 0.428439,-0.656519 0.65039,-0.980469 0.221951,-0.323951 0.449601,-0.644898 0.681641,-0.962891 0.23204,-0.317993 0.468808,-0.633278 0.710937,-0.945312 0.242129,-0.312035 0.488017,-0.621658 0.740235,-0.927735 0.252217,-0.306077 0.509178,-0.608084 0.771484,-0.908203 0.262306,-0.300119 0.53034,-0.598417 0.802734,-0.892578 0.272395,-0.294161 0.549548,-0.584844 0.832032,-0.873047 0.282483,-0.288203 0.570709,-0.573223 0.863281,-0.855469 0.292572,-0.282245 0.589917,-0.561603 0.892578,-0.83789 0.302661,-0.276288 0.611078,-0.549983 0.923828,-0.820313 0.31275,-0.270329 0.630287,-0.536409 0.953125,-0.800781 0.325381,-0.264372 0.653481,-0.52514 0.986328,-0.78125 0.332848,-0.25611 0.669451,-0.508011 1.009766,-0.755859 0.340315,-0.247849 0.685421,-0.490882 1.033203,-0.730469 0.347782,-0.239587 0.699438,-0.475706 1.054688,-0.707031 0.355249,-0.231326 0.713455,-0.458577 1.076171,-0.681641 0.362717,-0.223064 0.729426,-0.441448 1.09961,-0.65625 0.370184,-0.214802 0.743442,-0.426272 1.121093,-0.632812 0.377652,-0.206541 0.759413,-0.409144 1.144532,-0.607422 0.385118,-0.198279 0.77343,-0.392015 1.166015,-0.582032 0.392586,-0.190017 0.789401,-0.376838 1.189453,-0.558593 0.400053,-0.181756 0.803418,-0.357757 1.210938,-0.53125 0.40752,-0.173494 0.819388,-0.344534 1.234375,-0.509766 0.414987,-0.165232 0.833405,-0.325451 1.255859,-0.4824219 0.414001,-0.1538296 0.832734,-0.3033234 1.253907,-0.4492187 z"
             transform="matrix(0.26458027,0,0,0.26597768,-0.05695071,-0.00729638)" />
          <path
             id="path3356"
             style="font-family:'Droid Sans';-inkscape-font-specification:'Droid Sans';display:inline;fill:#fd0000;fill-opacity:0.512052;stroke:#ff0000;stroke-width:0.99738;stroke-opacity:0.734022"
             d="m 98.681641,9.4589844 c -0.421173,0.1458953 -0.839906,0.2953891 -1.253907,0.4492187 -0.422454,0.1569709 -0.840872,0.3171899 -1.255859,0.4824219 -0.414987,0.165232 -0.826855,0.336272 -1.234375,0.509766 -0.40752,0.173493 -0.810885,0.349494 -1.210938,0.53125 -0.400052,0.181755 -0.796867,0.368576 -1.189453,0.558593 -0.392585,0.190017 -0.780897,0.383753 -1.166015,0.582032 -0.385119,0.198278 -0.76688,0.400881 -1.144532,0.607422 -0.377651,0.20654 -0.750909,0.41801 -1.121093,0.632812 -0.370184,0.214802 -0.736893,0.433186 -1.09961,0.65625 -0.362716,0.223064 -0.720922,0.450315 -1.076171,0.681641 -0.35525,0.231325 -0.706906,0.467444 -1.054688,0.707031 -0.347782,0.239587 -0.692888,0.48262 -1.033203,0.730469 -0.340315,0.247848 -0.676918,0.499749 -1.009766,0.755859 -0.332847,0.25611 -0.660947,0.516878 -0.986328,0.78125 -0.322838,0.264372 -0.640375,0.530452 -0.953125,0.800781 -0.31275,0.27033 -0.621167,0.544025 -0.923828,0.820313 -0.302661,0.276287 -0.600006,0.555645 -0.892578,0.83789 -0.292572,0.282246 -0.580798,0.567266 -0.863281,0.855469 -0.282484,0.288203 -0.559637,0.578886 -0.832032,0.873047 -0.272394,0.294161 -0.540428,0.592459 -0.802734,0.892578 -0.262306,0.300119 -0.519267,0.602126 -0.771484,0.908203 -0.252218,0.306077 -0.498106,0.6157 -0.740235,0.927735 -0.242129,0.312034 -0.478897,0.627319 -0.710937,0.945312 -0.23204,0.317993 -0.45969,0.63894 -0.681641,0.962891 -0.221951,0.32395 -0.438528,0.65056 -0.65039,0.980469 -0.211863,0.329908 -0.41932,0.66218 -0.621094,0.998046 -0.201774,0.335867 -0.398159,0.675754 -0.589844,1.017578 -0.191685,0.341825 -0.37895,0.687375 -0.560547,1.035157 -0.181596,0.347782 -0.357789,0.697041 -0.529297,1.050781 -0.171508,0.35374 -0.338581,0.710615 -0.5,1.070312 -0.161419,0.359698 -0.317419,0.722235 -0.46875,1.087891 -0.15133,0.365656 -0.298211,0.735808 -0.439453,1.107422 -0.141242,0.371614 -0.27705,0.745475 -0.408203,1.123047 -0.131153,0.377571 -0.257842,0.757095 -0.378906,1.140625 -0.121065,0.383529 -0.236681,0.770669 -0.347656,1.160156 -0.110976,0.389487 -0.21552,0.782289 -0.316407,1.177735 -0.100887,0.395445 -0.198264,0.793909 -0.289062,1.195312 -0.0908,0.401403 -0.17515,0.80553 -0.25586,1.212891 -0.08071,0.407361 -0.157894,0.817149 -0.228515,1.230468 -0.07062,0.413319 -0.134781,0.830724 -0.195313,1.25 -0.06053,0.419277 -0.117525,0.840391 -0.167969,1.265625 -0.05044,0.425235 -0.09441,0.853964 -0.134765,1.285157 -0.04036,0.431192 -0.07716,0.865583 -0.107422,1.302734 -0.03027,0.437151 -0.05404,0.877204 -0.07422,1.320313 -0.02018,0.443108 -0.03679,0.888824 -0.04687,1.33789 -0.01009,0.449066 -0.01367,0.902398 -0.01367,1.357422 0,0.650761 0.01032,1.295225 0.0332,1.933594 0.02288,0.638368 0.05776,1.270508 0.103516,1.896484 0.04576,0.625976 0.10324,1.245791 0.171875,1.859375 0.06864,0.613584 0.148721,1.221075 0.240235,1.822266 0.09151,0.601191 0.194202,1.194404 0.308593,1.783203 0.114392,0.588799 0.239684,1.17164 0.376953,1.748047 0.13727,0.576406 0.287118,1.146923 0.447266,1.710937 0.160148,0.564014 0.330645,1.122207 0.513672,1.673828 0.183026,0.551622 0.378079,1.09749 0.583984,1.636719 0.205905,0.539229 0.423561,1.07082 0.652344,1.597656 0.228783,0.526837 0.469042,1.048056 0.720703,1.5625 0.251662,0.514445 0.514523,1.023339 0.789063,1.525391 0.02171,0.03969 0.04651,0.07757 0.06836,0.117188 l 13.232422,-39.751954 6.357422,18.796875 c 0.01941,-0.346339 0.03456,-0.694858 0.0625,-1.035156 0.04576,-0.557341 0.10324,-1.107302 0.171875,-1.648437 0.06864,-0.541136 0.148721,-1.07468 0.240234,-1.59961 0.09151,-0.52493 0.194202,-1.042056 0.308594,-1.550781 0.114391,-0.508725 0.239683,-1.009434 0.376953,-1.501953 0.13727,-0.492519 0.287117,-0.976811 0.447266,-1.453125 0.160148,-0.476314 0.330645,-0.944189 0.513671,-1.404297 0.183027,-0.460108 0.37808,-0.911566 0.583985,-1.355469 0.205905,-0.443903 0.42356,-0.878943 0.652344,-1.30664 0.228783,-0.427698 0.469041,-0.848274 0.720703,-1.259766 0.251661,-0.411492 0.514522,-0.815651 0.789062,-1.210937 0.27454,-0.395287 0.560004,-0.781076 0.857422,-1.160157 0.297418,-0.379081 0.607438,-0.750405 0.927734,-1.113281 0.320297,-0.362876 0.650966,-0.717783 0.994141,-1.064453 0.343175,-0.34667 0.698393,-0.685161 1.064453,-1.015625 0.37113,-0.330465 0.75105,-0.651127 1.14062,-0.960938 0.38957,-0.30981 0.78927,-0.609281 1.19727,-0.898437 0.40799,-0.289157 0.82357,-0.567435 1.25,-0.835938 0.42642,-0.268502 0.86373,-0.527542 1.30859,-0.77539 0.13101,-0.07299 0.26778,-0.139738 0.40039,-0.210938 z"
             transform="matrix(0.26458027,0,0,0.26597768,-0.05695071,-0.00729638)" />
        </g>
      </g>
      <g
         inkscape:groupmode="layer"
         id="layer11"
         inkscape:label="Ac"
         style="display:none">
        <path
           id="path46694"
           style="font-family:'Droid Sans';-inkscape-font-specification:'Droid Sans';display:none;fill:#00ffff;fill-opacity:1;stroke:#fffd00;stroke-width:0.999999;stroke-opacity:1"
           d="M 75.001953,5.5 5.5,195.5 h 24.333984 l 31.81836,-91.10938 H 78.822266 C 84.530818,99.639054 91.570312,96.237305 99.914062,94.162109 92.538373,92.235622 86.316771,89.149992 81.246094,84.90625 H 68.492188 l 3.65039,-11.023438 C 68.804585,67.798435 67.132813,60.808258 67.132812,52.90625 c 0,-14.637509 5.165387,-26.208416 15.496094,-34.712891 4.548764,-3.715389 9.827796,-6.62066 15.835938,-8.7128902 L 97.005859,5.5 Z m 50.332027,99.41406 c -5.55364,0 -10.54223,0.71545 -14.98046,2.13086 l 24.07031,67.17774 c 7.59919,-1.22914 13.88483,-4.11704 18.82617,-8.70118 0.61736,-0.58016 1.17542,-1.2001 1.73633,-1.81836 L 133.6543,105.49805 c -2.61491,-0.38895 -5.38884,-0.58399 -8.32032,-0.58399 z m 38.17188,82.03906 c -6.21272,3.53556 -13.51544,5.96413 -21.9082,7.28907 l 0.44922,1.25781 h 24.59179 z"
           transform="scale(0.26458333)"
           sodipodi:insensitive="true"
           sodipodi:nodetypes="cccccccccsccccscccccsccccc" />
      </g>
    </g>
    <text
       xml:space="preserve"
       transform="scale(0.26458333)"
       id="text32285"
       style="font-style:normal;font-variant:normal;font-weight:normal;font-stretch:normal;font-size:40px;line-height:1.25;font-family:'Droid Sans';-inkscape-font-specification:'Droid Sans';white-space:pre;shape-inside:url(#rect32287);display:none;fill:#000000;fill-opacity:1;stroke:none"
       sodipodi:insensitive="true" />
  </g>
  <g
     inkscape:groupmode="layer"
     id="layer12"
     inkscape:label="Main"
     style="display:inline">
    <path
       id="path1319"
       style="font-family:'Droid Sans';-inkscape-font-specification:'Droid Sans';display:inline;fill:#00ffff;fill-opacity:0.512052;stroke:#00ff00;stroke-width:0.99738;stroke-opacity:1"
       d="M 75.21875,5.4980469 5.7148438,194.50195 H 30.048828 L 61.869141,103.87109 H 79.455078 C 85.280434,99.20164 92.42547,95.871005 100.9043,93.896484 93.187022,91.996847 86.710804,88.85728 81.462891,84.488281 H 68.708984 L 72.359375,73.523438 C 69.021343,67.470957 67.349609,60.516833 67.349609,52.65625 c 0,-14.560774 5.165267,-26.071359 15.496094,-34.53125 4.548781,-3.695884 9.827784,-6.584758 15.835938,-8.6660156 L 97.222656,5.4980469 Z m 30.73828,23.7089841 c -1.93374,1.038263 -3.70303,2.262461 -5.29687,3.681641 -5.348249,4.828277 -8.246504,11.392049 -8.710941,19.679687 l 8.078121,23.886719 c 0.20949,0.202143 0.41525,0.407098 0.63282,0.603516 5.93819,5.287433 14.23441,7.93164 24.89062,7.93164 0.32189,0 0.63553,-0.01073 0.95313,-0.01563 z m 4.12685,74.663979 24.84971,70.27743 c 7.37369,-1.2745 13.48434,-4.14419 18.31641,-8.62696 0.7498,-0.70463 1.45065,-1.4423 2.11719,-2.20312 L 133.33244,103.87101 Z M 163.72266,186 c -6.21131,3.51618 -13.52178,5.92398 -21.91211,7.24219 l 0.45312,1.25976 h 24.5918 z"
       transform="matrix(0.26458027,0,0,0.26597768,-0.05695071,-0.00729638)"
       sodipodi:nodetypes="cccccccccscccccccccsccccccccccccc" />
    <path
       id="path7167"
       style="font-family:'Droid Sans';-inkscape-font-specification:'Droid Sans';display:inline;fill:#ff00ff;fill-opacity:0.312646;stroke:#000000;stroke-width:1;stroke-miterlimit:4;stroke-dasharray:none;stroke-opacity:1"
       d="m 125.33398,5.9570312 c -10.14781,0 -19.08899,1.3363992 -26.822261,4.0078126 l 7.242191,19.7597652 c 5.26834,-2.824946 11.79101,-4.24414 19.58007,-4.24414 10.57487,0 18.83134,2.642255 24.76954,7.929687 6.01953,5.287435 9.02929,12.649906 9.02929,22.085938 0,9.436031 -3.00976,16.798504 -9.02929,22.085937 -5.77506,5.142174 -13.7497,7.774748 -23.91016,7.916016 l 7.32226,19.978513 c 7.96793,1.15625 14.47464,4.09842 19.51563,8.83203 6.75164,6.26358 10.12891,14.8856 10.12891,25.86719 0,9.7925 -2.73451,17.74142 -8.1836,23.85742 l 8.29102,22.6211 c 3.02541,-1.69155 5.79753,-3.6373 8.31054,-5.84571 10.8189,-9.43603 16.22852,-22.98092 16.22852,-40.63281 0,-11.63235 -3.33556,-21.47418 -10.00586,-29.52734 -6.58895,-8.05317 -15.82088,-13.462786 -27.69726,-16.228518 10.49351,-2.603044 18.66854,-7.523957 24.52539,-14.763672 5.93819,-7.239713 8.9082,-16.066341 8.9082,-26.478516 0,-14.560775 -5.16526,-26.071359 -15.49609,-34.53125 C 157.71019,10.186594 143.47394,5.9570312 125.33398,5.9570312 Z M 141.5332,193.14648 134.90234,174.63867 c -2.98266,0.528 -6.1674,0.80078 -9.56836,0.80078 -11.71369,0 -20.94562,-3.13095 -27.697261,-9.39453 -6.670297,-6.26357 -10.00586,-14.88755 -10.00586,-25.86914 0,-10.98159 3.335563,-19.60361 10.00586,-25.86719 3.621231,-3.35945 7.963051,-5.80957 13.011721,-7.36718 l -1.1211,-3.12696 H 79.962891 c -2.624156,2.01516 -4.990245,4.29203 -7.095703,6.83399 -6.6703,8.05316 -10.00586,17.89499 -10.00586,29.52734 0,17.65189 5.367914,31.19678 16.105469,40.63281 10.8189,9.43604 26.274943,14.1543 46.367183,14.1543 1.09215,0.2421 11.4401,-0.77686 16.19922,-1.81641 z M 68.492943,84.905956 c 11.431257,0.04998 22.861648,-0.09433 34.292217,-0.196972 L 91.796875,52.042969 85.96875,34.720703 Z"
       transform="scale(0.26458333)"
       sodipodi:nodetypes="sccscsccccscccscccsssccscsccccsscccccccc"
       sodipodi:insensitive="true" />
    <g
       aria-label="A"
       id="g2443"
       style="font-size:70.1326px;line-height:1.25;display:none;fill:#0000ff;fill-opacity:0.512052;stroke:#ff0000;stroke-width:0.264583;stroke-opacity:1"
       transform="matrix(1.0000116,0,0,0.99475765,0.05695137,0.00725813)" />
  </g>
</svg>
